<svg width="19" height="22" viewBox="0 0 19 22" fill="none" xmlns="http://www.w3.org/2000/svg">
<path d="M14.9919 3.85867C14.1757 2.9569 13.726 1.79881 13.7263 0.599998H10.0373V14.9289C10.0088 15.7043 9.67058 16.4388 9.09382 16.9776C8.51705 17.5165 7.74674 17.8177 6.94512 17.8178C5.24981 17.8178 3.84104 16.4773 3.84104 14.8133C3.84104 12.8258 5.82287 11.3351 7.8644 11.9476V8.296C3.74552 7.76444 0.140015 10.8613 0.140015 14.8133C0.140015 18.6613 3.43512 21.4 6.93318 21.4C10.682 21.4 13.7263 18.4533 13.7263 14.8133V7.54489C15.2223 8.58471 17.0183 9.14261 18.86 9.13955V5.56889C18.86 5.56889 16.6155 5.67289 14.9919 3.85867Z" fill="white"/>
</svg>
