<svg width="22" height="16" viewBox="0 0 22 16" fill="none" xmlns="http://www.w3.org/2000/svg">
<path d="M20.9805 3.04943C20.8606 2.61385 20.6255 2.21662 20.2988 1.89751C19.9721 1.5784 19.5652 1.34859 19.1189 1.23109C17.4759 0.800003 10.89 0.800003 10.89 0.800003C10.89 0.800003 4.30403 0.800003 2.66107 1.22879C2.21454 1.34592 1.80745 1.5756 1.48069 1.89477C1.15394 2.21394 0.919014 2.61137 0.799519 3.04714C0.359985 4.65223 0.359985 8 0.359985 8C0.359985 8 0.359985 11.3478 0.799519 12.9506C1.04161 13.8357 1.75615 14.5327 2.66107 14.7689C4.30403 15.2 10.89 15.2 10.89 15.2C10.89 15.2 17.4759 15.2 19.1189 14.7689C20.0262 14.5327 20.7384 13.8357 20.9805 12.9506C21.42 11.3478 21.42 8 21.42 8C21.42 8 21.42 4.65223 20.9805 3.04943ZM8.79809 11.0726V4.92739L14.2511 7.97707L8.79809 11.0726Z" fill="white"/>
</svg>
