<svg width="21" height="22" viewBox="0 0 21 22" fill="none" xmlns="http://www.w3.org/2000/svg">
<path d="M6.24119 0.599998H14.7588C18.0036 0.599998 20.64 3.304 20.64 6.632V15.368C20.64 16.9678 20.0204 18.502 18.9174 19.6333C17.8145 20.7645 16.3186 21.4 14.7588 21.4H6.24119C2.99639 21.4 0.359985 18.696 0.359985 15.368V6.632C0.359985 5.03221 0.97961 3.49795 2.08255 2.36673C3.18549 1.23551 4.68139 0.599998 6.24119 0.599998ZM6.03839 2.68C5.07024 2.68 4.14175 3.07445 3.45716 3.77659C2.77258 4.47873 2.38799 5.43103 2.38799 6.424V15.576C2.38799 17.6456 4.02053 19.32 6.03839 19.32H14.9616C15.9297 19.32 16.8582 18.9255 17.5428 18.2234C18.2274 17.5213 18.612 16.569 18.612 15.576V6.424C18.612 4.3544 16.9794 2.68 14.9616 2.68H6.03839ZM15.8235 4.24C16.1596 4.24 16.482 4.37696 16.7197 4.62076C16.9574 4.86456 17.091 5.19522 17.091 5.54C17.091 5.88478 16.9574 6.21544 16.7197 6.45924C16.482 6.70303 16.1596 6.84 15.8235 6.84C15.4873 6.84 15.1649 6.70303 14.9272 6.45924C14.6895 6.21544 14.556 5.88478 14.556 5.54C14.556 5.19522 14.6895 4.86456 14.9272 4.62076C15.1649 4.37696 15.4873 4.24 15.8235 4.24ZM10.5 5.8C11.8446 5.8 13.1342 6.34785 14.085 7.32304C15.0358 8.29823 15.57 9.62087 15.57 11C15.57 12.3791 15.0358 13.7018 14.085 14.677C13.1342 15.6521 11.8446 16.2 10.5 16.2C9.15534 16.2 7.86576 15.6521 6.91495 14.677C5.96414 13.7018 5.42999 12.3791 5.42999 11C5.42999 9.62087 5.96414 8.29823 6.91495 7.32304C7.86576 6.34785 9.15534 5.8 10.5 5.8ZM10.5 7.88C9.6932 7.88 8.91945 8.20871 8.34897 8.79383C7.77848 9.37894 7.45799 10.1725 7.45799 11C7.45799 11.8275 7.77848 12.6211 8.34897 13.2062C8.91945 13.7913 9.6932 14.12 10.5 14.12C11.3068 14.12 12.0805 13.7913 12.651 13.2062C13.2215 12.6211 13.542 11.8275 13.542 11C13.542 10.1725 13.2215 9.37894 12.651 8.79383C12.0805 8.20871 11.3068 7.88 10.5 7.88Z" fill="white"/>
</svg>
