<svg width="19" height="18" viewBox="0 0 19 18" fill="none" xmlns="http://www.w3.org/2000/svg">
<path d="M4.06866 2.15642C4.0684 2.67504 3.8612 3.17231 3.49263 3.53885C3.12406 3.90538 2.62433 4.11115 2.10336 4.11089C1.58239 4.11063 1.08286 3.90436 0.714657 3.53746C0.346459 3.17056 0.139754 2.67308 0.140015 2.15447C0.140275 1.63585 0.34748 1.13858 0.716046 0.772043C1.08461 0.405509 1.58435 0.199738 2.10532 0.199997C2.62629 0.200257 3.12582 0.406525 3.49402 0.773426C3.86222 1.14033 4.06892 1.63781 4.06866 2.15642ZM4.12759 5.5589H0.198945V17.8H4.12759V5.5589ZM10.3349 5.5589H6.42585V17.8H10.2956V11.3764C10.2956 7.79789 14.9805 7.46546 14.9805 11.3764V17.8H18.86V10.0467C18.86 4.0141 11.926 4.23897 10.2956 7.20148L10.3349 5.5589Z" fill="white"/>
</svg>
